<?xml version="1.0" encoding="UTF-8"?>
<svg width="28px" height="16px" viewBox="0 0 28 16" version="1.1" xmlns="http://www.w3.org/2000/svg" xmlns:xlink="http://www.w3.org/1999/xlink">
    <title>Group 10</title>
    <defs>
        <polygon id="path-1" points="0.0012 0.757849663 9.8372 0.757849663 9.8372 16 0.0012 16"></polygon>
        <polygon id="path-3" points="0.886 0.757849663 10.724 0.757849663 10.724 16 0.886 16"></polygon>
        <polygon id="path-5" points="0.7726 0.757849663 10.61 0.757849663 10.61 16 0.7726 16"></polygon>
    </defs>
    <g id="NOA-front-&amp;-back" stroke="none" stroke-width="1" fill="none" fill-rule="evenodd">
        <g id="A4-NOA---Front---29-jan-Copy" transform="translate(-818.000000, -568.000000)">
            <g id="Group-16" transform="translate(654.000000, 92.000000)">
                <g id="Group-17" transform="translate(164.000000, 410.000000)">
                    <g id="Group-10" transform="translate(0.000000, 65.000000)">
                        <g id="Group-3" transform="translate(0.000000, 0.243280)">
                            <mask id="mask-2" fill="white">
                                <use xlink:href="#path-1"></use>
                            </mask>
                            <g id="Clip-2"></g>
                            <path d="M9.3912,13.5026 L9.3912,13.5026 L4.0552,8.3766 L9.3912,3.2546 C9.6792,2.9766 9.8372,2.6086 9.8372,2.2146 C9.8372,1.8206 9.6792,1.4526 9.3912,1.1746 C8.8092,0.6186 7.8632,0.6186 7.2832,1.1766 L0.1512,8.0246 C0.0552,8.1166 0.0012,8.2446 0.0012,8.3766 C0.0012,8.5126 0.0552,8.6406 0.1512,8.7326 L7.2832,15.5806 C7.5732,15.8606 7.9552,16.0006 8.3372,16.0006 C8.7192,16.0006 9.0992,15.8606 9.3912,15.5806 C9.6792,15.3046 9.8372,14.9366 9.8372,14.5426 C9.8372,14.1486 9.6792,13.7806 9.3912,13.5026" id="Fill-1" fill="#2B6B92" mask="url(#mask-2)"></path>
                        </g>
                        <g id="Group-6" transform="translate(8.000000, 0.243280)">
                            <mask id="mask-4" fill="white">
                                <use xlink:href="#path-3"></use>
                            </mask>
                            <g id="Clip-5"></g>
                            <path d="M10.276,13.5026 L4.94,8.3766 L10.276,3.2546 C10.566,2.9766 10.724,2.6086 10.724,2.2146 C10.724,1.8206 10.566,1.4526 10.276,1.1746 C9.696,0.6186 8.75,0.6186 8.168,1.1766 L1.038,8.0246 C0.94,8.1166 0.886,8.2446 0.886,8.3766 C0.886,8.5126 0.94,8.6406 1.038,8.7326 L8.168,15.5806 C8.46,15.8606 8.84,16.0006 9.224,16.0006 C9.604,16.0006 9.986,15.8606 10.276,15.5806 C10.566,15.3046 10.724,14.9366 10.724,14.5426 C10.724,14.1486 10.566,13.7806 10.278,13.5026 L10.276,13.5026 Z" id="Fill-4" fill="#2B6B92" mask="url(#mask-4)"></path>
                        </g>
                        <g id="Group-9" transform="translate(17.000000, 0.243280)">
                            <mask id="mask-6" fill="white">
                                <use xlink:href="#path-5"></use>
                            </mask>
                            <g id="Clip-8"></g>
                            <path d="M10.1626,13.5026 L10.1626,13.5026 L4.8266,8.3766 L10.1626,3.2546 C10.4526,2.9766 10.6106,2.6086 10.6106,2.2146 C10.6106,1.8206 10.4526,1.4526 10.1626,1.1746 C9.5826,0.6186 8.6346,0.6186 8.0546,1.1766 L0.9246,8.0246 C0.8266,8.1166 0.7726,8.2446 0.7726,8.3766 C0.7726,8.5126 0.8266,8.6406 0.9246,8.7326 L8.0546,15.5826 C8.3466,15.8606 8.7266,16.0006 9.1086,16.0006 C9.4906,16.0006 9.8706,15.8606 10.1626,15.5806 C10.4526,15.3046 10.6106,14.9366 10.6106,14.5426 C10.6106,14.1486 10.4526,13.7806 10.1626,13.5026" id="Fill-7" fill="#2B6B92" mask="url(#mask-6)"></path>
                        </g>
                    </g>
                </g>
            </g>
        </g>
    </g>
</svg>