<?xml version="1.0" encoding="UTF-8"?>
<svg width="44px" height="68px" viewBox="0 0 44 68" version="1.1" xmlns="http://www.w3.org/2000/svg" xmlns:xlink="http://www.w3.org/1999/xlink">
    <title>BPay-Vertical Icon</title>
    <g id="NOA-front-&amp;-back" stroke="none" stroke-width="1" fill="none" fill-rule="evenodd">
        <g id="A4-NOA---Front---29-jan-Copy" transform="translate(-687.000000, -1429.000000)" fill="#183168">
            <g id="Group-16" transform="translate(654.000000, 92.000000)">
                <g id="BPay-Vertical-Icon" transform="translate(30.000000, 1334.000000)">
                    <path d="M45.4358642,3.49447899 C46.3488272,3.49447899 46.6531481,4.11135294 46.6531481,4.72760504 L46.6531481,69.477605 C46.6531481,70.094479 46.3488272,70.7107311 45.4358642,70.7107311 L4.36117284,70.7107311 C3.75253086,70.7107311 3.34697531,70.197084 3.34697531,69.5802101 L3.34697531,18.6022941 L15.8216667,18.6022941 L10.750679,20.452916 L10.750679,48.4081261 C10.750679,49.2302101 11.1562346,49.6418739 11.8661111,49.6418739 L28.8031481,49.6418739 C34.5840123,49.436042 39.2494444,44.605521 39.2494444,38.747084 C39.2494444,34.8418739 37.2210494,31.4503109 34.2796914,29.497084 C36.1056173,27.8522941 37.5253704,25.077605 37.5253704,22.302916 C37.5253704,15.1081261 32.4543827,10.997084 25.2537654,10.997084 L18.2556173,10.997084 L18.2556173,3.49447899 L45.4358642,3.49447899 Z M25.355,53.444479 L23.9352469,53.444479 C23.4278395,53.444479 23.3266049,53.6503109 23.1235185,53.9581261 C23.022284,54.266563 18.9654938,65.366563 18.9654938,65.366563 C18.9654938,65.366563 18.7624074,65.8808319 19.3710494,65.8808319 L20.3852469,65.8808319 C20.6895679,65.8808319 20.9938889,65.777605 21.0951235,65.366563 C21.1969753,64.955521 21.8056173,63.3113529 21.8056173,63.3113529 L27.4846296,63.3113529 C27.4846296,63.3113529 27.6367901,63.7482017 27.8016821,64.2235273 L27.9119661,64.5417396 C28.0392612,64.909437 28.1555144,65.2468571 28.1951235,65.366563 C28.296358,65.777605 28.7019136,65.8808319 28.9043827,65.8808319 L29.9191975,65.8808319 C30.5272222,65.8808319 30.3247531,65.366563 30.3247531,65.366563 C30.3247531,65.366563 26.267963,54.266563 26.1667284,53.9581261 C25.9630247,53.6503109 25.8617901,53.444479 25.355,53.444479 Z M15.6185802,53.444479 L11.1562346,53.444479 C10.750679,53.444479 10.750679,53.752916 10.750679,53.9581261 L10.750679,65.366563 C10.750679,65.8808319 11.1562346,65.777605 11.2574691,65.777605 L12.3729012,65.777605 C12.5759877,65.777605 12.7790741,65.675 12.7790741,65.366563 L12.7790741,61.255521 L15.6185802,61.255521 C17.7482099,61.255521 19.5741358,59.5087479 19.5741358,57.247084 C19.5741358,55.294479 17.8500617,53.444479 15.6185802,53.444479 Z M30.4259877,53.444479 L29.3099383,53.444479 C28.7019136,53.444479 28.9043827,53.9581261 28.9043827,53.9581261 C28.9043827,53.9581261 31.1358642,57.966563 32.9611728,61.255521 L32.9611728,65.366563 C32.9611728,65.572395 33.0624074,65.777605 33.3673457,65.777605 L34.3815432,65.777605 C34.5840123,65.777605 34.8883333,65.777605 34.8883333,65.366563 L34.8883333,61.1522941 C35.2202076,60.5544148 35.5655091,59.9327305 35.9083842,59.3156622 L36.1648378,58.8541706 C37.6126893,56.2489885 38.9451235,53.855521 38.9451235,53.855521 C38.9451235,53.855521 39.0469753,53.444479 38.437716,53.444479 L37.3229012,53.444479 C37.0185802,53.444479 36.713642,53.547084 36.6124074,53.9581261 L36.1056173,54.986042 L33.8741358,58.994479 L31.6432716,54.986042 L31.1358642,53.9581261 C31.0340123,53.547084 30.6290741,53.444479 30.4259877,53.444479 Z M24.6451235,55.4996891 L26.7747531,61.255521 L22.6167284,61.255521 L24.6451235,55.4996891 Z M15.6185802,55.4996891 C16.7340123,55.4996891 17.5457407,56.425 17.5457407,57.452916 C17.5457407,58.5828151 16.7340123,59.405521 15.6185802,59.405521 L12.7790741,59.405521 L12.7790741,55.4996891 L15.6185802,55.4996891 Z M26.1667284,18.397084 C28.296358,18.397084 30.0204321,20.247084 30.0204321,22.405521 C30.0204321,24.563958 28.296358,26.3107311 26.1667284,26.3107311 L24.746358,26.413958 C24.0364815,26.413958 23.6309259,26.927605 23.5296914,27.544479 L23.5296914,32.375 C23.6309259,33.094479 24.0364815,33.505521 24.746358,33.505521 L28.1951235,33.505521 C30.5272222,33.505521 32.3531481,35.355521 32.3531481,37.7197899 C32.3531481,39.877605 30.6290741,41.727605 28.4988272,41.933437 L19.0673457,41.933437 C18.3568519,41.933437 17.9512963,41.522395 17.8500617,40.7003109 L17.8500617,18.397084 L26.1667284,18.397084 Z M10.750679,3.49447899 L10.750679,10.997084 L3.34697531,10.997084 L3.34697531,4.625 C3.34697531,4.00812605 3.85376543,3.49447899 4.36117284,3.49447899 L10.750679,3.49447899 Z" id="Combined-Shape"></path>
                </g>
            </g>
        </g>
    </g>
</svg>