<?xml version="1.0" encoding="UTF-8"?>
<svg width="52px" height="52px" viewBox="0 0 52 52" version="1.1" xmlns="http://www.w3.org/2000/svg" xmlns:xlink="http://www.w3.org/1999/xlink">
    <title>gavel icon</title>
    <g id="NOA-front-&amp;-back" stroke="none" stroke-width="1" fill="none" fill-rule="evenodd">
        <g id="A4-NOA---Front---29-jan-Copy" transform="translate(-686.000000, -1249.000000)" fill="#1E97E6" fill-rule="nonzero">
            <g id="Group-16" transform="translate(654.000000, 92.000000)">
                <g id="gavel-icon" transform="translate(32.000000, 1157.000000)">
                    <path d="M24,45.3296399 L24,50.6703601 C24,51.4046759 24.6939041,52 25.5498155,52 L50.4501845,52 C51.3060959,52 52,51.4046759 52,50.6703601 L52,45.3296399 C52,44.5953241 51.3060959,44 50.4501845,44 L25.5498155,44 C24.6938007,44 24,44.5953241 24,45.3296399 Z M27.099631,46.6592798 L48.900369,46.6592798 L48.900369,49.3407202 L27.099631,49.3407202 L27.099631,46.6592798 Z" id="Shape"></path>
                    <path d="M1.30582746,44.6941234 C2.17637909,45.5646748 3.31996153,46 4.46344501,46 C5.60692849,46 6.75051094,45.5647738 7.62106257,44.6941234 L25.5435209,26.7716699 L27.6602766,28.888425 L26.6018987,29.9468025 C26.0221907,30.5265104 26.0221907,31.4663338 26.6018987,32.0460417 L30.8179931,36.2621349 C31.1078471,36.5519888 31.4877548,36.6969653 31.8675635,36.6969653 C32.2473722,36.6969653 32.6273788,36.5520878 32.9171339,36.2621349 L45.565219,23.6140532 C46.144927,23.0343453 46.144927,22.0945219 45.565219,21.514814 L41.3491246,17.2987208 C40.7695156,16.7190129 39.8295929,16.7190129 39.2498849,17.2987208 L38.1915071,18.3570984 L27.6427606,7.80835476 L28.7011385,6.74997721 C28.9795131,6.47160264 29.135969,6.09407012 29.135969,5.70040711 C29.135969,5.30664514 28.9795131,4.92921158 28.7011385,4.65083701 L24.4851431,0.434743792 C23.9054351,-0.144964076 22.9655124,-0.144865116 22.3859034,0.434743792 L9.73791719,13.0828255 C9.15820917,13.6625334 9.15820917,14.6023568 9.73791719,15.1820647 L13.9539126,19.3980589 C14.2321883,19.6764335 14.6098198,19.8328893 15.003483,19.8328893 C15.3971461,19.8328893 15.7747777,19.6764335 16.0530533,19.3980589 L17.1114312,18.3396814 L19.2282858,20.4565354 L1.30582746,38.37889 C-0.435275819,40.1199928 -0.435275819,42.9530206 1.30582746,44.6941234 Z M25.5523284,5.70040711 L15.003483,16.2491507 L12.8867273,14.1323956 L23.4354737,3.58365202 L25.5523284,5.70040711 Z M29.7508078,30.9964716 L40.2995542,20.447728 L42.4163099,22.5644831 L31.8675635,33.1132267 L29.7508078,30.9964716 Z M29.7596153,26.7891858 L19.2107699,16.2404422 L25.5436199,9.90769288 L36.0923663,20.4564365 L29.7596153,26.7891858 Z M3.40506719,40.4781292 L21.3275255,22.5557746 L23.4442812,24.6725297 L5.5219218,42.5948843 C4.93825538,43.1783526 3.98883257,43.1783526 3.40506719,42.5948843 C2.82149972,42.0113169 2.82149972,41.0616965 3.40506719,40.4781292 Z" id="Shape"></path>
                </g>
            </g>
        </g>
    </g>
</svg>