<?xml version="1.0" encoding="UTF-8"?>
<svg width="52px" height="52px" viewBox="0 0 52 52" version="1.1" xmlns="http://www.w3.org/2000/svg" xmlns:xlink="http://www.w3.org/1999/xlink">
    <title>call-center-agent icon</title>
    <g id="NOA-front-&amp;-back" stroke="none" stroke-width="1" fill="none" fill-rule="evenodd">
        <g id="A4-NOA---Front---29-jan-Copy" transform="translate(-686.000000, -1051.000000)" fill="#1E97E6" fill-rule="nonzero">
            <g id="Group-16" transform="translate(654.000000, 92.000000)">
                <g id="call-center-agent-icon" transform="translate(32.000000, 959.000000)">
                    <path d="M48.1591094,41.1203203 L34.5578594,36.6618281 L34.5578594,31.9698438 C35.5292031,30.5340547 36.1840781,28.8445625 36.4151328,27.015625 L38.87,27.015625 C41.0136797,27.015625 42.7578125,25.2714922 42.7578125,23.1277109 L42.7578125,18.9636484 C42.7578125,18.1521641 42.5075625,17.3982656 42.0806953,16.7742656 L42.0806953,16.0806953 C42.0806953,7.21378125 34.8669141,0 26,0 C17.1330859,0 9.91930469,7.21378125 9.91930469,16.0806953 L9.91930469,16.7742656 C9.4924375,17.3983672 9.2421875,18.1522656 9.2421875,18.9636484 L9.2421875,23.1277109 C9.2421875,25.2714922 10.9863203,27.015625 13.1301016,27.015625 L15.5849687,27.015625 C15.8192734,28.8699531 16.4895859,30.5806719 17.4832734,32.0292578 L17.4832734,36.6484219 L3.84078906,41.1203203 C1.54354688,41.8735078 0,44.0038828 0,46.421375 L0,52 L52,52 L52,46.421375 C52,44.0038828 50.4564531,41.8735078 48.1591094,41.1203203 Z M20.5301484,35.0061563 C22.1244766,36.0358984 23.9976953,36.6302422 26,36.6302422 C28.0196719,36.6302422 29.9077187,36.0253359 31.5109844,34.9791406 L31.5109844,37.0814844 C30.3542891,38.0784219 28.0202812,39.7254609 26,39.7254609 C23.983375,39.7254609 21.6727266,38.0812656 20.5301484,37.0863594 L20.5301484,35.0061563 Z M33.4610859,17.7929375 C31.2532188,17.4010078 29.5708359,15.4691875 29.5708359,13.1505156 L26.5239609,13.1505156 C26.5239609,15.751125 24.4082109,17.866875 21.8076016,17.866875 L18.5389141,17.866875 L18.5389141,16.3984844 C18.5389141,12.2844922 21.8859062,8.9375 26,8.9375 C30.1140937,8.9375 33.4610859,12.2844922 33.4610859,16.3984844 L33.4610859,17.7929375 Z M18.5389141,21.0198828 L18.5389141,20.9138516 L21.8076016,20.9138516 C24.3617969,20.9138516 26.6318203,19.6739766 28.0473984,17.7645 C29.3083984,19.4654687 31.2472266,20.6349609 33.4610859,20.8701797 L33.4610859,25.5431719 C33.4610859,26.1418828 33.3981172,26.72475 33.2824375,27.2864922 L27.7483984,27.2864922 L27.7483984,30.3333672 L31.9884297,30.3333672 C30.6272891,32.3041875 28.4498906,33.5833672 26.0001016,33.5833672 C21.8861094,33.5833672 18.5389141,29.9765781 18.5389141,25.5431719 L18.5389141,21.0198828 L18.5389141,21.0198828 Z M39.7109375,23.1277109 C39.7109375,23.5914453 39.3336328,23.96875 38.8698984,23.96875 L36.5079609,23.96875 L36.5079609,18.1226094 L38.8698984,18.1226094 C39.3336328,18.1226094 39.7109375,18.4999141 39.7109375,18.9636484 L39.7109375,23.1277109 Z M26,3.046875 C32.8498828,3.046875 38.4825391,8.35828906 38.9957344,15.0788828 C38.9538906,15.0775625 38.9121484,15.0757344 38.8698984,15.0757344 L36.4248828,15.0757344 C35.7724453,9.90376562 31.3461484,5.890625 26,5.890625 C20.6538516,5.890625 16.2275547,9.90376562 15.5750156,15.0757344 L13.13,15.0757344 C13.0878516,15.0757344 13.0460078,15.0775625 13.0041641,15.0788828 C13.5174609,8.35828906 19.1501172,3.046875 26,3.046875 Z M12.2890625,23.1277109 L12.2890625,18.9636484 C12.2890625,18.4999141 12.6663672,18.1226094 13.1301016,18.1226094 L15.4920391,18.1226094 L15.4920391,23.96875 L13.1301016,23.96875 C12.6663672,23.96875 12.2890625,23.5914453 12.2890625,23.1277109 L12.2890625,23.1277109 Z M48.953125,48.953125 L41.5100156,48.953125 L41.5100156,45.8046875 L38.4631406,45.8046875 L38.4631406,48.953125 L13.5368594,48.953125 L13.5368594,45.8046875 L10.4899844,45.8046875 L10.4899844,48.953125 L3.046875,48.953125 L3.046875,46.421375 C3.046875,45.3241953 3.74735156,44.3574219 4.78999219,44.0156641 L18.640375,39.4755156 C19.9545937,40.5963594 22.9039688,42.7723359 26.0001016,42.7723359 C29.0896328,42.7723359 32.0576953,40.6036719 33.3847109,39.4837422 L47.2101094,44.0157656 C48.2526484,44.3574219 48.953125,45.3242969 48.953125,46.421375 L48.953125,48.953125 Z" id="Shape"></path>
                </g>
            </g>
        </g>
    </g>
</svg>