<?xml version="1.0" encoding="UTF-8"?>
<svg width="41px" height="42px" viewBox="0 0 41 42" version="1.1" xmlns="http://www.w3.org/2000/svg" xmlns:xlink="http://www.w3.org/1999/xlink">
    <title>SMS and email alarm icon</title>
    <g id="NOA-front-&amp;-back" stroke="none" stroke-width="1" fill="none" fill-rule="evenodd">
        <g id="A4-NOA---Front---29-jan-Copy" transform="translate(-693.000000, -1129.000000)" fill="#1E97E6" fill-rule="nonzero">
            <g id="Group-16" transform="translate(654.000000, 92.000000)">
                <g id="SMS-and-email-alarm-icon" transform="translate(39.000000, 1037.000000)">
                    <path d="M38.8354821,9.57156851 L38.1050104,8 L34.3333333,9.21748107 L35.0639062,10.7889653 C35.8765863,12.5375776 36.2886395,14.3740797 36.2886395,16.2474904 L36.2886395,24 L40.3333333,24 L40.3333333,16.2474904 C40.3333333,13.956034 39.8294656,11.7099129 38.8354821,9.57156851 Z" id="Path"></path>
                    <path d="M2.5616563,8 L1.83118459,9.57157679 C0.837201072,11.7098482 0.333333333,13.9559811 0.333333333,16.2474496 L0.333333333,24 L4.3780272,24 L4.3780272,16.2474496 C4.3780272,14.374029 4.79008039,12.5375172 5.6027605,10.78898 L6.33333333,9.21748748 L2.5616563,8 Z" id="Path"></path>
                    <path d="M38.3333333,32.15625 L36.6352201,32.15625 C35.7535597,32.15625 35.0467201,31.8601992 34.5342296,31.2762187 C33.9090692,30.5638594 33.5786164,29.4398672 33.5786164,28.0256484 L33.5786164,16.734375 C33.5786164,10.2688359 28.5230786,4.85813672 22.0314465,4.04422266 L22.0314465,0 L18.6352201,0 L18.6352201,4.04422266 C12.1435881,4.85813672 7.08805031,10.2687539 7.08805031,16.734375 L7.08805031,28.546875 C7.08805031,29.709668 6.77101258,30.6612305 6.17115409,31.2986953 C5.6432956,31.859707 4.90342767,32.15625 4.03144654,32.15625 L2.33333333,32.15625 L2.33333333,36.75 L16.0382107,36.75 C15.960522,37.0662305 15.918239,37.3955039 15.918239,37.734375 C15.918239,40.086457 17.8988333,42 20.3333333,42 C22.7678333,42 24.7484277,40.086457 24.7484277,37.734375 C24.7484277,37.3955039 24.7060597,37.0662305 24.628456,36.75 L38.3333333,36.75 L38.3333333,32.15625 Z M20.3333333,38.71875 C19.7715126,38.71875 19.3144654,38.2771758 19.3144654,37.734375 C19.3144654,37.1915742 19.7715126,36.75 20.3333333,36.75 C20.8951541,36.75 21.3522013,37.1915742 21.3522013,37.734375 C21.3522013,38.2771758 20.8951541,38.71875 20.3333333,38.71875 Z M8.71891824,33.46875 C9.87405975,32.2205625 10.4842767,30.5198906 10.4842767,28.546875 L10.4842767,16.734375 C10.4842767,11.5609102 14.8367956,7.294875 20.1891635,7.21981641 L20.4775031,7.21981641 C25.8298711,7.294875 30.1823899,11.5609102 30.1823899,16.734375 L30.1823899,28.0256484 C30.1823899,30.2273672 30.7915031,32.0852109 31.9437579,33.3982031 C31.9645597,33.4219102 31.9855314,33.4454531 32.006673,33.46875 L8.71891824,33.46875 Z" id="Shape"></path>
                </g>
            </g>
        </g>
    </g>
</svg>