<?xml version="1.0" encoding="UTF-8"?>
<svg width="60px" height="71px" viewBox="0 0 60 71" version="1.1" xmlns="http://www.w3.org/2000/svg" xmlns:xlink="http://www.w3.org/1999/xlink">
    <title>black icon paper with tick front page</title>
    <g id="NOA-front-&amp;-back" stroke="none" stroke-width="1" fill="none" fill-rule="evenodd">
        <g id="A4-NOA---Front---29-jan-Copy" transform="translate(-323.000000, -882.000000)" fill="#020303">
            <g id="Group-15" transform="translate(128.000000, 882.000000)">
                <g id="Group-3" transform="translate(194.945848, 0.000000)">
                    <path d="M12.3562774,46.5052788 L9.67102527,43.8347589 L7.71688361,45.7782795 L10.4019975,48.4487994 L12.3562774,50.3924574 L14.310419,48.4487994 L19.3063172,43.4800547 L17.3521755,41.5363967 L12.3562774,46.5052788 Z M21.3546976,21.922533 C20.789265,21.0438121 20.0180824,20.32712 19.0947636,19.8230305 C19.5304452,19.206799 19.7671475,18.4694925 19.7671475,17.7128086 L19.7671475,17.3787188 C19.7671475,15.3517788 18.1092638,13.7027685 16.0712469,13.7027685 C14.0332299,13.7027685 12.3750698,15.3517788 12.3750698,17.3787188 L12.3750698,17.7128086 C12.3750698,18.4694925 12.6119104,19.2066616 13.0475919,19.8230305 C12.1244113,20.3265703 11.3529523,21.0435373 10.7875197,21.922533 C9.99243197,20.8246129 9.55827038,19.4966367 9.55827038,18.140625 C9.55827038,14.5689833 12.4799485,11.663185 16.0712469,11.663185 C19.6622689,11.663185 22.583947,14.5689833 22.583947,18.140625 C22.583947,19.4966367 22.1499236,20.8246129 21.3546976,21.922533 L21.3546976,21.922533 Z M14.7259263,17.7128086 L14.7259263,17.3787188 C14.7259263,16.6408626 15.3294966,16.0407102 16.0712469,16.0407102 C16.812859,16.0407102 17.416291,16.6408626 17.416291,17.3787188 L17.416291,17.7128086 C17.416291,18.4503899 16.812859,19.0505423 16.0712469,19.0505423 C15.3294966,19.0505423 14.7259263,18.4503899 14.7259263,17.7128086 L14.7259263,17.7128086 Z M16.0712469,24.618065 C14.8117361,24.618065 13.5969956,24.2601999 12.5433731,23.5811634 C13.1969645,22.241918 14.5577612,21.3886214 16.0712469,21.3886214 C17.5848707,21.3886214 18.9456674,22.241918 19.599397,23.5811634 C18.5452217,24.2601999 17.3304813,24.618065 16.0712469,24.618065 L16.0712469,24.618065 Z M16.0712469,9.32510582 C11.18382,9.32510582 7.2075521,13.2797621 7.2075521,18.140625 C7.2075521,23.0014879 11.18382,26.9560067 16.0712469,26.9560067 C20.9585355,26.9560067 24.9346653,23.0014879 24.9346653,18.140625 C24.9346653,13.2797621 20.9585355,9.32510582 16.0712469,9.32510582 L16.0712469,9.32510582 Z M23.076006,47.3386481 L41.8998539,47.3386481 L41.8998539,44.5900685 L23.076006,44.5900685 L23.076006,47.3386481 Z M23.076006,37.0096236 L41.8998539,37.0096236 L41.8998539,34.261044 L23.076006,34.261044 L23.076006,37.0096236 Z M12.3562774,35.9600785 L9.67102527,33.2894212 L7.71688361,35.2329418 L10.4019975,37.9035991 L12.3562774,39.8471197 L14.310419,37.9035991 L19.3063172,32.934717 L17.3521755,30.9911964 L12.3562774,35.9600785 Z M28.7413863,26.1115057 L41.177587,26.1115057 L41.177587,23.3629261 L28.7413863,23.3629261 L28.7413863,26.1115057 Z M28.7413863,19.5149148 L41.177587,19.5149148 L41.177587,16.7663352 L28.7413863,16.7663352 L28.7413863,19.5149148 Z M28.7413863,12.9183239 L41.177587,12.9183239 L41.177587,10.1697443 L28.7413863,10.1697443 L28.7413863,12.9183239 Z M21.1301551,62.1178977 L10.5479156,62.1178977 L10.5479156,64.8664773 L12.2934055,64.8664773 C12.3431503,64.871837 12.3937241,64.8751353 12.4449889,64.8751353 L50.306311,64.8751353 C52.5920847,64.8751353 54.4517112,63.0256161 54.4517112,60.752266 L54.4517112,15.5085852 L54.4517112,4.98399929 L51.688111,4.98399929 L51.688111,6.87996946 L51.688111,6.88010689 L51.688111,60.752266 C51.688111,61.5100494 51.0680973,62.1265558 50.306311,62.1265558 L21.1301551,62.1265558 L21.1301551,62.1178977 Z M57.2238785,10.6346665 L57.2238785,12.3684705 L57.2238785,12.368608 L57.2238785,66.240767 C57.2238785,66.9985504 56.6041412,67.6150568 55.8420784,67.6150568 L21.1301551,67.6150568 L10.5479156,67.6150568 L10.5479156,70.3636364 L12.4534179,70.3636364 L12.4535561,70.3636364 L55.8420784,70.3636364 C58.1278521,70.3636364 59.9874787,68.5141172 59.9874787,66.240767 L59.9874787,21.1593899 L59.9874787,10.6346665 L57.2238785,10.6346665 Z M2.76354488,55.2464489 L2.76354488,4.12286932 C2.76354488,3.36508594 3.38342039,2.74857955 4.14534495,2.74857955 L44.7702671,2.74857955 C45.5323299,2.74857955 46.1520672,3.36508594 46.1520672,4.12286932 L46.1520672,55.2464489 C46.1520672,56.0042322 45.5323299,56.6207386 44.7702671,56.6207386 L4.14534495,56.6207386 C3.38342039,56.6207386 2.76354488,56.0042322 2.76354488,55.2464489 L2.76354488,55.2464489 Z M48.9156674,55.2464489 L48.9156674,4.12286932 C48.9156674,1.84951918 47.0560408,0 44.7702671,0 L4.14534495,0 C1.85957127,0 -5.5272003e-05,1.84951918 -5.5272003e-05,4.12286932 L-5.5272003e-05,55.2464489 C-5.5272003e-05,57.519799 1.85957127,59.3693182 4.14534495,59.3693182 L44.7702671,59.3693182 C47.0560408,59.3693182 48.9156674,57.519799 48.9156674,55.2464489 L48.9156674,55.2464489 Z" id="Fill-1"></path>
                </g>
            </g>
        </g>
    </g>
</svg>