<?xml version="1.0" encoding="UTF-8"?>
<svg width="40px" height="40px" viewBox="0 0 40 40" version="1.1" xmlns="http://www.w3.org/2000/svg" xmlns:xlink="http://www.w3.org/1999/xlink">
    <title>NOA-icons/Phone</title>
    <g id="NOA-front-&amp;-back" stroke="none" stroke-width="1" fill="none" fill-rule="evenodd">
        <g id="A4-NOA---Front---29-jan-Copy" transform="translate(-690.000000, -782.000000)" fill="#31A1EB">
            <g id="Group-16" transform="translate(654.000000, 92.000000)">
                <g id="NOA-icons/Phone" transform="translate(36.000000, 690.000000)">
                    <path d="M4.02111557,1.2374106 C5.67060423,-0.412470201 8.3545445,-0.412470201 10.0040332,1.2374106 L10.0040332,1.2374106 L16.3359412,7.57082402 C17.9901248,9.22383553 17.9901248,11.9021525 16.3359412,13.5567293 L16.3359412,13.5567293 L14.7521817,15.1393 C13.7834592,16.1082528 13.7834592,17.684562 14.7521817,18.6535148 C14.7631366,18.6629069 14.7725264,18.672299 14.7819163,18.6816911 L14.7819163,18.6816911 L21.0966096,25.2624301 C22.070027,26.2219908 23.8947934,26.2188601 24.8619509,25.2514727 L24.8619509,25.2514727 L26.4441454,23.668902 C27.245415,22.8690072 28.3064713,22.4291434 29.4363867,22.4291434 C30.5678671,22.4291434 31.6304883,22.8690072 32.430193,23.668902 L32.430193,23.668902 L38.760536,30.0007501 C39.5602407,30.8006448 40,31.8635187 40,32.9937027 C40,34.1238867 39.5602407,35.1867606 38.760536,35.9866554 L38.760536,35.9866554 L37.1767765,37.5707914 C34.3379033,40.4103396 28.5271335,40.2960689 24.5677347,39.5431347 C21.1091295,38.8841216 14.4595305,36.9289972 8.76769915,31.237378 C3.07899776,25.5457588 1.12433806,18.8930136 0.465481584,15.4351515 C-0.584619827,9.92198243 0.171265391,5.08817605 2.43735607,2.82154663 L2.43735607,2.82154663 Z M7.01179187,3.98616838 C7.00553195,3.98616838 6.9995921,3.9862056 6.99388954,3.98634405 L6.96185947,3.98890121 L6.96185947,3.98890121 L6.93155113,3.99695909 C6.8084636,4.04428742 6.6313399,4.29734952 5.2558846,5.64074524 C4.17135363,6.72553404 3.52188703,10.1818308 4.38106092,14.690044 C4.9538435,17.6970849 6.65184653,23.4810598 11.5877927,28.4181794 C16.5221738,33.3537336 22.304774,35.0521404 25.3126651,35.6266245 C29.8198067,36.4844373 33.273717,35.8348163 34.358248,34.7515928 L34.358248,34.7515928 L35.9420075,33.1674568 C35.9889569,33.1204962 36.0139966,33.0610129 36.0139966,32.9937027 C36.0139966,32.9910286 36.0140482,32.9884677 36.0141321,32.9859994 L36.0148691,32.9721366 C36.015005,32.9699564 36.0151347,32.9678277 36.0152387,32.9657298 L36.0154013,32.9533478 C36.01525,32.9492339 36.0148419,32.9450786 36.0140223,32.940717 L36.0101752,32.9268485 C36.0092768,32.924379 36.008237,32.9218168 36.0070364,32.9191411 L35.9977492,32.9015622 C35.9650941,32.8469668 35.8748171,32.7477009 35.6320573,32.5025555 L35.4887703,32.3585875 C35.4359118,32.3056844 35.3777834,32.2476821 35.3138638,32.1840245 L35.0260629,31.8979135 C34.9992996,31.8713377 34.9718157,31.8440511 34.9435917,31.8160331 L34.7652133,31.638984 C34.3588172,31.2356475 33.8208328,30.7017456 33.1088403,29.9920193 L32.7677183,29.651804 C32.7087539,29.5929657 32.6487212,29.5330459 32.587601,29.4720239 L31.3658098,28.2501424 C30.8417476,27.7252138 30.2587183,27.1402218 29.6100994,26.4881006 C29.5146357,26.3926142 29.3597027,26.3926142 29.2642389,26.4881006 L29.2642389,26.4881006 L27.6804794,28.0706713 C25.1530371,30.6002798 20.7867436,30.5924531 18.2655612,28.0706713 L18.2655612,28.0706713 L18.2373916,28.042495 L11.9180034,21.4570599 C9.40308093,18.9243207 9.41403579,14.8418832 11.9336532,12.3201014 L11.9336532,12.3201014 L13.5174127,10.7375307 C13.5643621,10.6890048 13.5894018,10.6310868 13.5894018,10.5637767 L13.5894018,10.5637767 L13.5898668,10.5489258 C13.589996,10.5466222 13.5901383,10.5443906 13.5902742,10.5422105 L13.5903676,10.5171992 C13.5850064,10.4668406 13.5315293,10.3986448 13.1630203,10.0278335 L13.0641755,9.92866145 C12.976078,9.84048963 12.8733419,9.73815344 12.7535535,9.61907787 L12.601468,9.46798746 C12.3873621,9.25538091 12.1271311,8.99728467 11.8108892,8.68315142 L11.5630513,8.43687973 C11.1750781,8.05121739 10.7130882,7.59129595 10.1630061,7.04209783 L8.71298735,5.59154899 C8.2492344,5.12677719 7.74146368,4.6171356 7.18550463,4.05817456 C7.13855523,4.00964866 7.07595604,3.98616838 7.01179187,3.98616838 Z" id="Combined-Shape"></path>
                </g>
            </g>
        </g>
    </g>
</svg>