<svg height="110px" width="110px" xmlns="http://www.w3.org/2000/svg" viewBox="0 0 110 110">
    <g fill="#31A1EB" fill-rule="evenodd">
        <path d="M88 94l-1 1v3h3l1-1v-2l-1-1h-2zm-5-15h-3l-1 1v10l1 1h10l1-1V80l-1-1h-7zm-29 4l-1-1v-2-1h3l1-1v-2h4v3h7v-1-2h4v3h3l1-1v-5-1h3v3l1 1h2l1-1v-2l1-1h2l1 1v2l1 1h2l1-1v-2-1h6a1 1 0 011 1v3h-1-2-1v3h3l1 1a95 95 0 010 3h7l1 1v3h3v4h-6l-1-1v-2-1h-3l-1 1v2l-1 1h-2-1v3h4v3l-1 1h-2l-1 1v2l-1 1h-2v4h2l1-1v-1-1-1h4v7H65h-1v-2-1h-1-1-1v-1-2-1h3v-1-6l1-1h2l1 1v3h3l1 1a79 79 0 010 2l1 1h6v3l1 1h6v-1h1v-2-1h-7l-1-1v-2-1h-2-1v-1-2l-1-1h-2l-1-1v-2h-3l-1-1v-2l1-1h2l1-1v-2l-1-1h-2l-1 1v2l-1 1h-2l-1-1v-2-1H54zM4 14v9h19v-1V5 4H5L4 5v9M14 1h13v25l-1 1H2 1v-1V2 1h13M4 96v9l1 1h18v-1-11-6-1H5 4v9m23 0v13H2 1v-1-24-1h25l1 1v12M96 23h10v-1V5l-1-1H87v19h9zm-13-9V2 1h26v26H84l-1-1V14zM25 64h-5-1v-3h7l1-1v-2l-1-1h-6l-1 1v3h-3v-1-1-1-1h-3l-1-1v-2l1-1h2l1-1v-2l1-1h1l1 1v2l1 1h7v-1-2l1-1h5l1 1v7h-2-1v4h3v11h-1-2v1a81 81 0 000 2l-1 1h-2l-1-1v-2l-1-1h-2l-1-1v-2l1-1h6l1-1v-2l-1-1h-5M14 31h5v6l1 1h7v3l-1 1h-2l-1 1v2l1 1h3v3h-7-1v-2-1h-6l-1-1a100 100 0 010-3H5l-1-1v-2l-1-1H2l-1-1v-2-1h6l1 1v3h3l1-1v-2l-1-1H9 8v-2l1-1h5"/>
        <path d="M57 109h-4v-1-5l-1-1h-5-1v-1-1-1l-1-1h-2-1v-1-5-1h1a78 78 0 002 0h1v3h7v-1-2h-1-2l-1-1v-6l1-1h2l1 1v2l1 1h2l1 1v2l1 1h6a115 115 0 010 3h-6-1v4h3l1 1v2l-1 1h-1-2v3l1 1h3v3h-4zM46 21v-4l1-1h1l1-1v-2-1h-7v-1-5-1l-1-1h-1-1-1V1h8v7h6l1 1v3h7l1 1v2l-1 1h-6l-1 1v2h-1-2v1h-1v7h-1-2v-1-3-2M85 64h2v-3h-4v3h2zm2 4h-3l-1 1v3h-1-2l-1-1v-2-1h-1-2v-1-2l1-1h2v-1-5l1-1h6l1-1v-2-1h3l1 1v3h2l1 1v2l-1 1h-2v6l-1 1h-3zM91 42h7v-1-2-1h3l1 1v6l1 1h3v3h-8v-1-2h-1-2-1v3h1a99 99 0 003 1v2l-1 1h-6v-1-2-3l-1-1h-6l-1-1v-2l1-1h7M68 25v-8-1h-1a108 108 0 00-2 0l-1-1v-2l1-1h6l1 1v13l1 1h2l1-1v-5-1-1h3v12h-6-1v3h-3-1v-1-8"/>
        <path d="M42 21v9l-1 1h-2l-1-1v-1-8-1l-1-1h-2-1v-3h1a91 91 0 013-1v-2l1-1h2l1 1v8M104 61h-5l-1-1v-6l1-1h2l1 1v2l1 1h2l1-1v-6-1h2l1 1v10l-1 1h-4M31 96v-5h3v3h1a97 97 0 003 1v10l-1 1h-2l-1-1v-2l-1-1h-1-1v-1-2-3M57 31h-7l-1-1v-2l1-1h3v-1-2l1-1h2l1 1a124 124 0 010 3h1a99 99 0 012 0l1-1v-2-1h3v8h-7M34 25v5h1v1h3v3h-1-1-1l-1 1v3h-3v-1-17-1h3v6M104 31h5v7h-7v-1-2l-1-1a115 115 0 00-3 0v-2l1-1h5M85 31h6v3h-3l-1 1v2l-1 1h-6l-1-1v-5-1h6M109 78v5h-2-1v-1-1-1l-1-1h-2-1v-1-5-1h7v6M1 72v-6-1l1-1h2v15H1v-1-6M48 76h5v3h-1-2l-1 1v3h-1-2v-1-2l-1-1h-2-1v-1-1l1-1h5M53 1h3l1 1v2h3l1 1v2l-1 1h-6-1V7 6 5l-1-1h-2-1V3 2l1-1h3M34 12h-2-1v-1-9-1h3v6l1 1h2l1 1v3h-4M8 57h3l1 1v2l-1 1H9 8v3H7 5 4v-1-5l1-1h3M46 106v3h-8v-3h3l1-1v-1-1-1h3l1 1v3M76 49v-3a948 948 0 007 0v3h-1-2l-1 1v3h-2-1v-1-3M6 49H1v-1-1-1h11v3H6M38 87h3l1 1v2h-1v1h-6l-1-1v-2l1-1h3M102 98h3v1h1v2l-1 1h-6-1v-1-2l1-1h3zM16 76v3h-3l-1-1a257 257 0 001-6h3v4M19 70v2h-2l-1-1v-2-1h3v2M109 104v1l-1 1h-2v-1-2-1h2l1 1v1M64 6V5l1-1h2l1 1v3h-1-2-1V7 6M10 68h1l1 1v2l-1 1H9l-1-1v-2l1-1h1M14 68h-1l-1-1v-2l1-1h2l1 1v2l-1 1h-1M98 70v-1l1-1h2l1 1v2l-1 1h-2-1v-1-1M46 33v1h-4v-1a275 275 0 001-2h3v2zM98 66v1l-1 1h-2-1v-1a29 29 0 010-2l1-1h2l1 1v1M92 38h-1v-1-2-1h2l1 1v3h-1-1zM21 76h-1l-1-1v-2l1-1h2l1 1v3h-1-1M76 14v-1-1h3v4h-3v-2zM62 12h-1v-1-1-1-1h3v4h-2zM31 44v-1-1h3v4h-2l-1-1v-1M79 6v2h-3V7 5 4h2l1 1v1zM23 33v-2h4v3h-4v-1zM79 40v2h-3v-1-2-1a53 53 0 013 0v2M23 77v-1h4v3h-4v-2M74 8h1l1 1v2l-1 1h-1-1l-1-1V9 8h2zM87 51v1l-1 1h-1-1-1v-1a321 321 0 011-3h2l1 1v1zM102 66v-1-1h1a109 109 0 002 0l1 1v2l-1 1h-3v-1-1zM59 19h1l1 1v2l-1 1h-2l-1-1v-2l1-1h1M34 81v2h-3v-1-2-1h3v2zM87 85v1l-1 1h-2l-1-1v-2l1-1h2l1 1v1M14 8h5v11H8v-1-9l1-1h5M19 96v6H9l-1-1v-9-1h11v5M96 8h5l1 1v10H91v-1-9-1h5M49 57h8v-3h-8v3zm0-5h12v-2H49v2zm16 7l-2 1H53l-5 3v-3h-1l-2-1V49l2-2h16l2 2v10zM46 44c-2 0-3 2-3 4v11c0 2 1 4 3 4v5l7-5h11c2 0 3-2 3-4V48c0-2-1-4-3-4H46z"/>
    </g>
</svg>
