<?xml version="1.0" encoding="UTF-8"?>
<svg width="34px" height="50px" viewBox="0 0 34 50" version="1.1" xmlns="http://www.w3.org/2000/svg" xmlns:xlink="http://www.w3.org/1999/xlink">
    <title>SMS phone Icon - Front</title>
    <g id="NOA-front-&amp;-back" stroke="none" stroke-width="1" fill="none" fill-rule="evenodd">
        <g id="A4-NOA---Front---29-jan-Copy" transform="translate(-692.000000, -632.000000)" fill="#31A1EB">
            <g id="Group-16" transform="translate(654.000000, 92.000000)">
                <path d="M65.4412833,540 C69.0574068,540 72,543.070175 72,546.843084 L72,546.843084 L72,583.156916 C72,586.931455 69.0574068,590 65.4412833,590 L65.4412833,590 L44.5587167,590 C40.9425932,590 38,586.931455 38,583.156916 L38,583.156916 L38,546.843084 C38,543.070175 40.9425932,540 44.5587167,540 L44.5587167,540 Z M68.1635336,580.316637 L41.8349037,580.316637 L41.8349037,583.156916 C41.8349037,584.725429 43.0553845,585.998826 44.5587167,585.998826 L44.5587167,585.998826 L65.4412833,585.998826 C66.9430528,585.998826 68.1635336,584.725429 68.1635336,583.156916 L68.1635336,583.156916 L68.1635336,580.316637 Z M68.1650963,551.264919 L41.8349037,551.264919 L41.8349037,576.315463 L68.1650963,576.315463 L68.1650963,551.264919 Z M65.4412833,544.001174 L44.5587167,544.001174 C43.0553845,544.001174 41.8349037,545.274571 41.8349037,546.843084 L41.8349037,546.843084 L41.8349037,547.263745 L68.1635336,547.263745 L68.1635336,546.843084 C68.1635336,545.274571 66.9430528,544.001174 65.4412833,544.001174 L65.4412833,544.001174 Z" id="SMS-phone-Icon---Front"></path>
            </g>
        </g>
    </g>
</svg>